<?xml version="1.0" encoding="utf-8"?>
<!-- Generator: Adobe Illustrator 23.0.0, SVG Export Plug-In . SVG Version: 6.00 Build 0)  -->
<svg version="1.1" id="图层_1" xmlns="http://www.w3.org/2000/svg" xmlns:xlink="http://www.w3.org/1999/xlink" x="0px" y="0px"
	 viewBox="0 0 1024 1024" style="enable-background:new 0 0 1024 1024;" xml:space="preserve">
<style type="text/css">
	.st0{fill:url(#SVGID_1_);}
	.st1{clip-path:url(#SVGID_3_);}
	.st2{fill:#EDF4FC;}
	.st3{clip-path:url(#SVGID_5_);fill:#EAF3FB;}
	.st4{fill:#ABC6E3;}
	.st5{fill:none;}
	.st6{fill:#442414;}
	.st7{fill:#2B140A;}
	.st8{fill:#F49E1A;}
	.st9{fill:#C88012;}
	.st10{fill:#BC7D44;}
	.st11{fill:#965D28;}
</style>
<linearGradient id="SVGID_1_" gradientUnits="userSpaceOnUse" x1="300.8494" y1="97.5937" x2="723.1506" y2="926.4063">
	<stop  offset="0" style="stop-color:#DFEBF8"/>
	<stop  offset="0.2928" style="stop-color:#CFE2F7"/>
	<stop  offset="0.6466" style="stop-color:#C3DBF5"/>
	<stop  offset="1" style="stop-color:#BFD9F5"/>
</linearGradient>
<circle class="st0" cx="512" cy="512" r="465"/>
<g>
	<defs>
		<circle id="SVGID_2_" cx="512" cy="512" r="465"/>
	</defs>
	<clipPath id="SVGID_3_">
		<use xlink:href="#SVGID_2_"  style="overflow:visible;"/>
	</clipPath>
	<g class="st1">
		<path class="st2" d="M746.74,1145.39H126.61c-19.09,0-34.57-15.48-34.57-34.57V262.54c0-19.09,15.48-34.57,34.57-34.57h620.13
			c19.09,0,34.57,15.48,34.57,34.57v848.27C781.31,1129.91,765.83,1145.39,746.74,1145.39z"/>
		<g>
			<defs>
				<path id="SVGID_4_" d="M696.74,1195.39H76.61c-19.09,0-34.57-15.48-34.57-34.57V312.54c0-19.09,15.48-34.57,34.57-34.57h620.13
					c19.09,0,34.57,15.48,34.57,34.57v848.27C731.31,1179.91,715.83,1195.39,696.74,1195.39z"/>
			</defs>
			<use xlink:href="#SVGID_4_"  style="overflow:visible;fill:#FFFFFF;"/>
			<clipPath id="SVGID_5_">
				<use xlink:href="#SVGID_4_"  style="overflow:visible;"/>
			</clipPath>
			<polyline class="st3" points="790.43,978.68 739.33,104.04 -52.48,1011.13 			"/>
		</g>
		<path class="st4" d="M628.82,442.98H173.74c-13.18,0-23.96-10.78-23.96-23.96v-15.04c0-13.18,10.78-23.96,23.96-23.96h455.08
			c13.18,0,23.96,10.78,23.96,23.96v15.04C652.79,432.19,642,442.98,628.82,442.98z"/>
		<path class="st4" d="M628.82,586.98H173.74c-13.18,0-23.96-10.78-23.96-23.96v-15.04c0-13.18,10.78-23.96,23.96-23.96h455.08
			c13.18,0,23.96,10.78,23.96,23.96v15.04C652.79,576.19,642,586.98,628.82,586.98z"/>
		<path class="st4" d="M472.22,730.98H173.54c-13.18,0-23.96-10.78-23.96-23.96v-15.04c0-13.18,10.78-23.96,23.96-23.96h298.68
			c13.18,0,23.96,10.78,23.96,23.96v15.04C496.19,720.19,485.4,730.98,472.22,730.98z"/>
		<path class="st4" d="M552.97,874.98H173.54c-13.18,0-23.96-10.78-23.96-23.96v-15.04c0-13.18,10.78-23.96,23.96-23.96h379.43
			c13.18,0,23.96,10.78,23.96,23.96v15.04C576.94,864.19,566.15,874.98,552.97,874.98z"/>
	</g>
</g>
<circle class="st5" cx="512" cy="512" r="465"/>
<g>
	<path class="st6" d="M1008.94,179.31c17.52-19.15,16.2-49.15-2.95-66.67l-74.74-68.41c-19.15-17.52-49.15-16.2-66.67,2.95
		l-25.3,27.65l144.37,132.13L1008.94,179.31z"/>
	<path class="st7" d="M1005.99,112.64l-74.74-68.41c-8.75-8-19.76-12.06-30.81-12.3c2.7,1.61,5.27,3.51,7.68,5.71l74.74,68.41
		c19.15,17.52,20.47,47.53,2.95,66.67l-18.04,19.71l15.87,14.53l25.3-27.65C1026.46,160.17,1025.13,130.16,1005.99,112.64z"/>
	<polygon class="st8" points="717.5,497.75 576.41,362.03 830.83,84.04 975.2,216.18 	"/>
	<polygon class="st9" points="717.5,497.75 689.42,462.64 921.82,208.71 830.83,84.04 975.2,216.18 	"/>
	<polygon class="st10" points="717.5,497.75 532.86,554.55 576.41,362.03 622.98,359.97 645.05,414.5 708.1,442.23 710.66,476.44 	
		"/>
	<polyline class="st11" points="708.1,442.23 710.66,476.44 717.5,497.75 532.86,554.55 680,474.5 	"/>
	<polygon points="532.86,554.55 586.72,537.98 545.2,499.99 	"/>
</g>
</svg>
